<mxfile host="app.diagrams.net" agent="Mozilla/5.0 (Windows NT 10.0; Win64; x64) AppleWebKit/537.36 (KHTML, like Gecko) Chrome/131.0.0.0 Safari/537.36" version="25.0.1">
  <diagram name="Page-1" id="4EJ7iSS-Rt1fkslnQ3fg">
    <mxGraphModel dx="1744" dy="1036" grid="1" gridSize="10" guides="1" tooltips="1" connect="1" arrows="1" fold="1" page="1" pageScale="1" pageWidth="850" pageHeight="1100" math="0" shadow="0">
      <root>
        <mxCell id="0" />
        <mxCell id="1" parent="0" />
        <mxCell id="R884XxZkduRBrohjx5yr-1" value="/robot1/zed2i/left/image_rect_color" style="rounded=1;whiteSpace=wrap;html=1;fillColor=#ffcc99;strokeColor=#36393d;" vertex="1" parent="1">
          <mxGeometry x="160" y="287.5" width="210" height="42.5" as="geometry" />
        </mxCell>
        <mxCell id="R884XxZkduRBrohjx5yr-2" value="/input_images" style="rounded=1;whiteSpace=wrap;html=1;fillColor=#ffcccc;strokeColor=#36393d;" vertex="1" parent="1">
          <mxGeometry x="160" y="360" width="210" height="40" as="geometry" />
        </mxCell>
        <mxCell id="R884XxZkduRBrohjx5yr-4" value="image_subscriber" style="rounded=1;whiteSpace=wrap;html=1;fillColor=#ffff88;strokeColor=#36393d;" vertex="1" parent="1">
          <mxGeometry x="440" y="290" width="120" height="75" as="geometry" />
        </mxCell>
        <mxCell id="R884XxZkduRBrohjx5yr-9" value="" style="endArrow=classic;html=1;rounded=0;exitX=1;exitY=0.5;exitDx=0;exitDy=0;entryX=1;entryY=0.5;entryDx=0;entryDy=0;" edge="1" parent="1" target="R884XxZkduRBrohjx5yr-2">
          <mxGeometry width="50" height="50" relative="1" as="geometry">
            <mxPoint x="440" y="340" as="sourcePoint" />
            <mxPoint x="430" y="390" as="targetPoint" />
            <Array as="points">
              <mxPoint x="390" y="340" />
              <mxPoint x="390" y="380" />
            </Array>
          </mxGeometry>
        </mxCell>
        <mxCell id="R884XxZkduRBrohjx5yr-11" value="/pallet_detections" style="rounded=1;whiteSpace=wrap;html=1;fillColor=#dae8fc;gradientColor=#7ea6e0;strokeColor=#6c8ebf;" vertex="1" parent="1">
          <mxGeometry x="650" y="250" width="210" height="40" as="geometry" />
        </mxCell>
        <mxCell id="R884XxZkduRBrohjx5yr-12" value="/ground_detections" style="rounded=1;whiteSpace=wrap;html=1;fillColor=#e6d0de;gradientColor=#d5739d;strokeColor=#996185;" vertex="1" parent="1">
          <mxGeometry x="650" y="307.5" width="210" height="40" as="geometry" />
        </mxCell>
        <mxCell id="R884XxZkduRBrohjx5yr-13" value="/pallet_segmentmask" style="rounded=1;whiteSpace=wrap;html=1;fillColor=#ffcd28;gradientColor=#ffa500;strokeColor=#d79b00;" vertex="1" parent="1">
          <mxGeometry x="650" y="360" width="210" height="40" as="geometry" />
        </mxCell>
        <mxCell id="R884XxZkduRBrohjx5yr-14" value="/ground_segmentmask" style="rounded=1;whiteSpace=wrap;html=1;fillColor=#f5f5f5;gradientColor=#b3b3b3;strokeColor=#666666;" vertex="1" parent="1">
          <mxGeometry x="650" y="410" width="210" height="40" as="geometry" />
        </mxCell>
        <mxCell id="R884XxZkduRBrohjx5yr-16" value="" style="endArrow=classic;html=1;rounded=0;entryX=0;entryY=0.5;entryDx=0;entryDy=0;exitX=1;exitY=0.5;exitDx=0;exitDy=0;" edge="1" parent="1" source="R884XxZkduRBrohjx5yr-4" target="R884XxZkduRBrohjx5yr-12">
          <mxGeometry width="50" height="50" relative="1" as="geometry">
            <mxPoint x="510" y="400" as="sourcePoint" />
            <mxPoint x="560" y="350" as="targetPoint" />
            <Array as="points" />
          </mxGeometry>
        </mxCell>
        <mxCell id="R884XxZkduRBrohjx5yr-17" value="" style="endArrow=classic;html=1;rounded=0;entryX=0;entryY=0.5;entryDx=0;entryDy=0;exitX=1.004;exitY=0.621;exitDx=0;exitDy=0;exitPerimeter=0;" edge="1" parent="1" source="R884XxZkduRBrohjx5yr-4" target="R884XxZkduRBrohjx5yr-13">
          <mxGeometry width="50" height="50" relative="1" as="geometry">
            <mxPoint x="560" y="330" as="sourcePoint" />
            <mxPoint x="600" y="360" as="targetPoint" />
            <Array as="points">
              <mxPoint x="580" y="350" />
              <mxPoint x="600" y="380" />
            </Array>
          </mxGeometry>
        </mxCell>
        <mxCell id="R884XxZkduRBrohjx5yr-19" value="/all_detections" style="rounded=1;whiteSpace=wrap;html=1;fillColor=#d5e8d4;strokeColor=#82b366;gradientColor=#97d077;" vertex="1" parent="1">
          <mxGeometry x="650" y="190" width="210" height="40" as="geometry" />
        </mxCell>
        <mxCell id="R884XxZkduRBrohjx5yr-21" value="" style="endArrow=classic;html=1;rounded=0;entryX=0;entryY=0.5;entryDx=0;entryDy=0;exitX=1;exitY=0.75;exitDx=0;exitDy=0;" edge="1" parent="1" source="R884XxZkduRBrohjx5yr-4" target="R884XxZkduRBrohjx5yr-14">
          <mxGeometry width="50" height="50" relative="1" as="geometry">
            <mxPoint x="560" y="440" as="sourcePoint" />
            <mxPoint x="610" y="390" as="targetPoint" />
            <Array as="points">
              <mxPoint x="570" y="360" />
              <mxPoint x="590" y="430" />
            </Array>
          </mxGeometry>
        </mxCell>
        <mxCell id="R884XxZkduRBrohjx5yr-23" value="" style="endArrow=classic;html=1;rounded=0;exitX=1;exitY=0.361;exitDx=0;exitDy=0;exitPerimeter=0;entryX=0;entryY=0.5;entryDx=0;entryDy=0;" edge="1" parent="1" source="R884XxZkduRBrohjx5yr-4" target="R884XxZkduRBrohjx5yr-11">
          <mxGeometry width="50" height="50" relative="1" as="geometry">
            <mxPoint x="570" y="320" as="sourcePoint" />
            <mxPoint x="610" y="270" as="targetPoint" />
            <Array as="points">
              <mxPoint x="590" y="310" />
              <mxPoint x="600" y="270" />
            </Array>
          </mxGeometry>
        </mxCell>
        <mxCell id="R884XxZkduRBrohjx5yr-27" value="" style="endArrow=classic;html=1;rounded=0;exitX=1;exitY=0.5;exitDx=0;exitDy=0;entryX=1;entryY=0.5;entryDx=0;entryDy=0;" edge="1" parent="1" target="R884XxZkduRBrohjx5yr-1">
          <mxGeometry width="50" height="50" relative="1" as="geometry">
            <mxPoint x="440" y="320" as="sourcePoint" />
            <mxPoint x="390" y="370" as="targetPoint" />
            <Array as="points">
              <mxPoint x="390" y="320" />
              <mxPoint x="390" y="310" />
            </Array>
          </mxGeometry>
        </mxCell>
        <mxCell id="R884XxZkduRBrohjx5yr-25" value="" style="endArrow=classic;html=1;rounded=0;exitX=0.995;exitY=0.115;exitDx=0;exitDy=0;exitPerimeter=0;entryX=0;entryY=0.5;entryDx=0;entryDy=0;" edge="1" parent="1" source="R884XxZkduRBrohjx5yr-4" target="R884XxZkduRBrohjx5yr-19">
          <mxGeometry width="50" height="50" relative="1" as="geometry">
            <mxPoint x="550" y="260" as="sourcePoint" />
            <mxPoint x="600" y="210" as="targetPoint" />
            <Array as="points">
              <mxPoint x="580" y="290" />
              <mxPoint x="590" y="210" />
            </Array>
          </mxGeometry>
        </mxCell>
        <mxCell id="R884XxZkduRBrohjx5yr-28" value="image_publisher" style="rounded=1;whiteSpace=wrap;html=1;fillColor=#cce5ff;strokeColor=#36393d;" vertex="1" parent="1">
          <mxGeometry x="440" y="470" width="120" height="60" as="geometry" />
        </mxCell>
        <mxCell id="R884XxZkduRBrohjx5yr-30" value="/test_images" style="shape=cylinder3;whiteSpace=wrap;html=1;boundedLbl=1;backgroundOutline=1;size=15;fillColor=#eeeeee;strokeColor=#36393d;" vertex="1" parent="1">
          <mxGeometry x="270" y="475" width="110" height="50" as="geometry" />
        </mxCell>
        <mxCell id="R884XxZkduRBrohjx5yr-31" value="" style="endArrow=classic;html=1;rounded=0;exitX=1;exitY=0.5;exitDx=0;exitDy=0;exitPerimeter=0;entryX=0;entryY=0.5;entryDx=0;entryDy=0;" edge="1" parent="1" source="R884XxZkduRBrohjx5yr-30" target="R884XxZkduRBrohjx5yr-28">
          <mxGeometry width="50" height="50" relative="1" as="geometry">
            <mxPoint x="450" y="600" as="sourcePoint" />
            <mxPoint x="500" y="550" as="targetPoint" />
          </mxGeometry>
        </mxCell>
        <mxCell id="R884XxZkduRBrohjx5yr-33" value="start.sh&lt;div&gt;(converts best.pt to best.engine)&lt;/div&gt;" style="rounded=1;whiteSpace=wrap;html=1;fillColor=#cdeb8b;strokeColor=#36393d;" vertex="1" parent="1">
          <mxGeometry x="145" y="212.5" width="215" height="35" as="geometry" />
        </mxCell>
        <mxCell id="R884XxZkduRBrohjx5yr-34" value="" style="endArrow=classic;html=1;rounded=0;exitX=1;exitY=0.5;exitDx=0;exitDy=0;entryX=0.25;entryY=0;entryDx=0;entryDy=0;" edge="1" parent="1" source="R884XxZkduRBrohjx5yr-33" target="R884XxZkduRBrohjx5yr-4">
          <mxGeometry width="50" height="50" relative="1" as="geometry">
            <mxPoint x="420" y="250" as="sourcePoint" />
            <mxPoint x="470" y="200" as="targetPoint" />
            <Array as="points">
              <mxPoint x="420" y="230" />
              <mxPoint x="470" y="270" />
            </Array>
          </mxGeometry>
        </mxCell>
        <mxCell id="R884XxZkduRBrohjx5yr-37" value="&lt;b&gt;&lt;font style=&quot;font-size: 9px;&quot;&gt;Topic&lt;/font&gt;&lt;/b&gt;" style="text;html=1;align=center;verticalAlign=middle;whiteSpace=wrap;rounded=0;" vertex="1" parent="1">
          <mxGeometry x="160" y="365" width="30" height="5" as="geometry" />
        </mxCell>
        <mxCell id="R884XxZkduRBrohjx5yr-39" value="&lt;b&gt;&lt;font style=&quot;font-size: 9px;&quot;&gt;Topic&lt;/font&gt;&lt;/b&gt;" style="text;html=1;align=center;verticalAlign=middle;whiteSpace=wrap;rounded=0;" vertex="1" parent="1">
          <mxGeometry x="160" y="287.5" width="30" height="15" as="geometry" />
        </mxCell>
        <mxCell id="R884XxZkduRBrohjx5yr-41" value="&lt;b&gt;&lt;font style=&quot;font-size: 9px;&quot;&gt;Topic&lt;/font&gt;&lt;/b&gt;" style="text;html=1;align=center;verticalAlign=middle;whiteSpace=wrap;rounded=0;" vertex="1" parent="1">
          <mxGeometry x="650" y="200" width="30" height="5" as="geometry" />
        </mxCell>
        <mxCell id="R884XxZkduRBrohjx5yr-42" value="&lt;b&gt;&lt;font style=&quot;font-size: 9px;&quot;&gt;Topic&lt;/font&gt;&lt;/b&gt;" style="text;html=1;align=center;verticalAlign=middle;whiteSpace=wrap;rounded=0;" vertex="1" parent="1">
          <mxGeometry x="650" y="260" width="30" height="5" as="geometry" />
        </mxCell>
        <mxCell id="R884XxZkduRBrohjx5yr-43" value="&lt;b&gt;&lt;font style=&quot;font-size: 9px;&quot;&gt;Topic&lt;/font&gt;&lt;/b&gt;" style="text;html=1;align=center;verticalAlign=middle;whiteSpace=wrap;rounded=0;" vertex="1" parent="1">
          <mxGeometry x="650" y="312.5" width="30" height="5" as="geometry" />
        </mxCell>
        <mxCell id="R884XxZkduRBrohjx5yr-44" value="&lt;b&gt;&lt;font style=&quot;font-size: 9px;&quot;&gt;Topic&lt;/font&gt;&lt;/b&gt;" style="text;html=1;align=center;verticalAlign=middle;whiteSpace=wrap;rounded=0;" vertex="1" parent="1">
          <mxGeometry x="650" y="365" width="30" height="5" as="geometry" />
        </mxCell>
        <mxCell id="R884XxZkduRBrohjx5yr-45" value="&lt;b&gt;&lt;font style=&quot;font-size: 9px;&quot;&gt;Topic&lt;/font&gt;&lt;/b&gt;" style="text;html=1;align=center;verticalAlign=middle;whiteSpace=wrap;rounded=0;" vertex="1" parent="1">
          <mxGeometry x="650" y="420" width="30" height="5" as="geometry" />
        </mxCell>
        <mxCell id="R884XxZkduRBrohjx5yr-46" value="&lt;i&gt;&lt;font style=&quot;font-size: 9px;&quot;&gt;subscribe&lt;/font&gt;&lt;/i&gt;" style="text;html=1;align=center;verticalAlign=middle;whiteSpace=wrap;rounded=0;" vertex="1" parent="1">
          <mxGeometry x="390" y="310" width="50" height="7.5" as="geometry" />
        </mxCell>
        <mxCell id="R884XxZkduRBrohjx5yr-47" value="&lt;i&gt;&lt;font style=&quot;font-size: 9px;&quot;&gt;subscribe&lt;/font&gt;&lt;/i&gt;" style="text;html=1;align=center;verticalAlign=middle;whiteSpace=wrap;rounded=0;" vertex="1" parent="1">
          <mxGeometry x="390" y="330" width="50" height="10" as="geometry" />
        </mxCell>
        <mxCell id="R884XxZkduRBrohjx5yr-48" value="&lt;b&gt;&lt;font style=&quot;font-size: 9px;&quot;&gt;Node&lt;/font&gt;&lt;/b&gt;" style="text;html=1;align=center;verticalAlign=middle;whiteSpace=wrap;rounded=0;" vertex="1" parent="1">
          <mxGeometry x="440" y="475" width="30" height="5" as="geometry" />
        </mxCell>
        <mxCell id="R884XxZkduRBrohjx5yr-50" value="&lt;b&gt;&lt;font style=&quot;font-size: 9px;&quot;&gt;Node&lt;/font&gt;&lt;/b&gt;" style="text;html=1;align=center;verticalAlign=middle;whiteSpace=wrap;rounded=0;" vertex="1" parent="1">
          <mxGeometry x="440" y="295" width="30" height="5" as="geometry" />
        </mxCell>
        <mxCell id="R884XxZkduRBrohjx5yr-51" value="" style="endArrow=classic;html=1;rounded=0;entryX=0.477;entryY=1.03;entryDx=0;entryDy=0;entryPerimeter=0;exitX=0.5;exitY=0;exitDx=0;exitDy=0;" edge="1" parent="1" source="R884XxZkduRBrohjx5yr-28" target="R884XxZkduRBrohjx5yr-2">
          <mxGeometry width="50" height="50" relative="1" as="geometry">
            <mxPoint x="290" y="470" as="sourcePoint" />
            <mxPoint x="340" y="420" as="targetPoint" />
            <Array as="points">
              <mxPoint x="500" y="440" />
              <mxPoint x="260" y="440" />
            </Array>
          </mxGeometry>
        </mxCell>
        <mxCell id="R884XxZkduRBrohjx5yr-58" value="&lt;font size=&quot;1&quot;&gt;&lt;i&gt;publish&lt;/i&gt;&lt;/font&gt;" style="text;html=1;align=center;verticalAlign=middle;whiteSpace=wrap;rounded=0;rotation=0;" vertex="1" parent="1">
          <mxGeometry x="595" y="200" width="50" height="7.5" as="geometry" />
        </mxCell>
        <mxCell id="R884XxZkduRBrohjx5yr-63" value="&lt;font size=&quot;1&quot;&gt;&lt;i&gt;publish&lt;/i&gt;&lt;/font&gt;" style="text;html=1;align=center;verticalAlign=middle;whiteSpace=wrap;rounded=0;rotation=0;" vertex="1" parent="1">
          <mxGeometry x="595" y="260" width="50" height="7.5" as="geometry" />
        </mxCell>
        <mxCell id="R884XxZkduRBrohjx5yr-64" value="&lt;font size=&quot;1&quot;&gt;&lt;i&gt;publish&lt;/i&gt;&lt;/font&gt;" style="text;html=1;align=center;verticalAlign=middle;whiteSpace=wrap;rounded=0;rotation=0;" vertex="1" parent="1">
          <mxGeometry x="595" y="317.5" width="50" height="7.5" as="geometry" />
        </mxCell>
        <mxCell id="R884XxZkduRBrohjx5yr-65" value="&lt;font size=&quot;1&quot;&gt;&lt;i&gt;publish&lt;/i&gt;&lt;/font&gt;" style="text;html=1;align=center;verticalAlign=middle;whiteSpace=wrap;rounded=0;rotation=0;" vertex="1" parent="1">
          <mxGeometry x="600" y="370" width="40" height="7.5" as="geometry" />
        </mxCell>
        <mxCell id="R884XxZkduRBrohjx5yr-67" value="&lt;font size=&quot;1&quot;&gt;&lt;i&gt;publish&lt;/i&gt;&lt;/font&gt;" style="text;html=1;align=center;verticalAlign=middle;whiteSpace=wrap;rounded=0;rotation=0;" vertex="1" parent="1">
          <mxGeometry x="600" y="417.5" width="40" height="7.5" as="geometry" />
        </mxCell>
        <mxCell id="R884XxZkduRBrohjx5yr-68" value="&lt;font size=&quot;1&quot;&gt;&lt;i&gt;publish&lt;/i&gt;&lt;/font&gt;" style="text;html=1;align=center;verticalAlign=middle;whiteSpace=wrap;rounded=0;rotation=0;" vertex="1" parent="1">
          <mxGeometry x="430" y="430" width="40" height="7.5" as="geometry" />
        </mxCell>
        <mxCell id="R884XxZkduRBrohjx5yr-71" value="" style="rounded=0;whiteSpace=wrap;html=1;fillColor=none;glass=0;dashed=1;" vertex="1" parent="1">
          <mxGeometry x="130" y="150" width="760" height="400" as="geometry" />
        </mxCell>
        <mxCell id="R884XxZkduRBrohjx5yr-72" value="&lt;b&gt;Docker&amp;nbsp;&lt;/b&gt;" style="text;html=1;align=center;verticalAlign=middle;whiteSpace=wrap;rounded=0;" vertex="1" parent="1">
          <mxGeometry x="130" y="150" width="60" height="30" as="geometry" />
        </mxCell>
      </root>
    </mxGraphModel>
  </diagram>
</mxfile>
